Coordinates
version=1
nRows=11
nColumns=36
inDegrees=yes

Units are S.I. units (second, meters, Newtons, ...)
If the header above contains a line with 'inDegrees', this indicates whether rotational values are in degrees (yes) or radians (no).

endheader
time	pelvis_tilt	pelvis_list	pelvis_rotation	pelvis_tx	pelvis_ty	pelvis_tz	hip_flexion_r	hip_adduction_r	hip_rotation_r	knee_angle_r	knee_angle_r_beta	ankle_angle_r	subtalar_angle_r	mtp_angle_r	hip_flexion_l	hip_adduction_l	hip_rotation_l	knee_angle_l	knee_angle_l_beta	ankle_angle_l	subtalar_angle_l	mtp_angle_l	lumbar_extension	lumbar_bending	lumbar_rotation	arm_flex_r	arm_add_r	arm_rot_r	elbow_flex_r	pro_sup_r	arm_flex_l	arm_add_l	arm_rot_l	elbow_flex_l	pro_sup_l
     29.56666670	     -5.60221905	     -1.67834443	      1.57779982	      0.13900391	      0.90561050	     -0.09931516	      1.17603868	     -7.19220397	    -12.97529276	      0.48321841	      0.00843375	      7.58699767	     -0.06547671	     -7.49999987	      3.88351784	    -10.43390163	      9.08078771	      1.12195266	      0.01958177	      6.31275339	     -3.77236210	     -7.49999987	      1.33842793	      2.35961373	     -4.06608047	     37.62372777	      1.36724892	     62.68024183	    123.38176236	     91.05260354	     50.19299795	     12.73468473	     71.52755009	    118.19663060	     71.81916758
     29.58333330	     -5.70342505	     -1.67980145	      1.33429426	      0.13908597	      0.90842850	     -0.09865164	      1.33929042	     -7.10584809	    -12.59250466	      0.48670666	      0.00849463	      7.59322784	     -0.16366898	     -7.49999987	      4.07334391	    -10.54005025	      8.93474475	      1.45352375	      0.02536878	      6.25521943	     -3.91754979	     -7.49999987	      1.24241254	      2.36327571	     -3.83305582	     38.29322579	      1.48578986	     63.00864119	    123.44564278	     89.91873296	     50.23194727	     12.38753882	     71.12367333	    118.57625769	     71.59368678
     29.60000000	     -6.02748809	     -1.73591830	      1.17627102	      0.12965957	      0.90414928	     -0.09349733	      1.88482188	     -6.92066879	    -12.19572579	      0.49658945	      0.00866712	      7.51058047	     -0.57127375	     -7.49999987	      4.74008276	    -10.66905188	      9.14910539	      1.87857258	      0.03278728	      5.99011960	     -4.80335331	     -7.49999987	      1.18356243	      2.34822705	     -3.61702492	     39.61167342	      1.76017982	     62.57111105	    123.01708793	     94.31753387	     51.15623250	     11.96175009	     70.63277974	    118.75289435	     73.75416766
     29.61666670	     -6.16366062	     -1.66104300	      1.13436558	      0.13410027	      0.91165391	     -0.09626282	      2.11458502	     -6.91297608	    -12.00483207	      0.48602997	      0.00848282	      7.38796352	     -0.69248926	     -7.49999987	      5.18420507	    -10.64735752	      9.31772400	      2.26970957	      0.03961391	      5.39927259	     -5.48076488	     -7.49999987	      0.91542740	      2.22395708	     -3.81934761	     40.51713953	      1.99272990	     62.75988193	    122.65035496	     90.83037195	     51.63547755	     11.63146202	     70.59818969	    118.59155291	     72.54505332
     29.63333330	     -6.37421454	     -1.58734902	      1.01765958	      0.13452592	      0.91089965	     -0.09632745	      2.45395229	     -6.94727977	    -11.86984222	      0.48752071	      0.00850884	      7.24758386	     -0.70333460	     -7.49999987	      5.67449943	    -10.59369017	      9.19292163	      2.64037772	      0.04608328	      5.27274210	     -5.78736743	     -7.49999987	      0.70515898	      2.11750833	     -4.15197142	     41.27227639	      2.34505591	     62.69187017	    122.59038548	     94.55412013	     52.60702950	     11.47716022	     70.44523988	    118.68513257	     74.20805002
     29.65000000	     -6.58684158	     -1.56200092	      0.95983650	      0.12975793	      0.90446194	     -0.09382108	      2.85794723	     -6.91252273	    -11.69562422	      0.51266787	      0.00894774	      7.22455740	     -0.88149527	     -7.49999987	      6.23589909	    -10.57703836	      9.35454495	      3.02157810	      0.05273649	      5.11565135	     -6.45952219	     -7.49999987	      0.53955556	      2.01323175	     -4.40479300	     42.88270977	      2.84278579	     62.64344983	    122.66404325	     93.92065223	     54.05620478	     11.30929364	     70.20754265	    118.94990237	     74.08348040
     29.66666670	     -6.90319591	     -1.56907501	      0.97266738	      0.12001627	      0.90571903	     -0.08827650	      3.44653307	     -6.76510613	    -11.49352667	      0.51581202	      0.00900262	      7.13203654	     -1.19059267	     -7.49999987	      7.08423400	    -10.65183661	      9.40597242	      3.43912903	      0.06002412	      4.89003532	     -6.67209241	     -7.49999987	      0.21587251	      1.80106141	     -4.44255062	     44.63610532	      3.35980962	     62.49381192	    122.32666997	     93.98236009	     55.98919673	     11.12459472	     70.24685371	    119.07132338	     74.13041574
     29.68333330	     -7.28889375	     -1.57026855	      1.09507606	      0.11971714	      0.90720844	     -0.08857847	      4.07339137	     -6.64909572	    -11.28911697	      0.51927120	      0.00906299	      6.91700171	     -1.67025450	     -7.49999987	      8.03389685	    -10.69096958	      9.59061752	      3.82897509	      0.06682822	      4.48745296	     -6.95389469	     -7.49999987	     -0.07789172	      1.70531800	     -4.91086173	     45.96994884	      3.81465622	     62.22883530	    121.76368829	     94.08130224	     57.60646623	     10.57159782	     70.02185569	    119.32986977	     74.11254569
     29.70000000	     -7.61167572	     -1.57610645	      1.06196694	      0.12042221	      0.90719360	     -0.08865945	      4.62092707	     -6.53337078	    -11.18788882	      0.52643629	      0.00918805	      6.85264969	     -1.62704002	     -7.49999987	      8.74746925	    -10.76500230	      9.69300459	      4.01871330	      0.07013978	      4.23097507	     -6.84661345	     -7.49999987	     -0.36560225	      1.60758261	     -4.94005677	     46.88103877	      3.80893557	     61.71591266	    121.73565428	     94.07892022	     58.51234401	     10.37448648	     69.70019760	    119.39957676	     74.09469190
     29.71666670	     -8.28799107	     -1.70720089	      1.14495817	      0.11592144	      0.90266824	     -0.08658285	      5.62289708	     -6.30902138	    -10.98960676	      0.61735003	      0.01077479	      6.58606264	     -2.40095107	     -7.49999987	     10.12316807	    -10.93866972	      9.72561386	      4.63126492	      0.08083082	      4.68551056	     -6.49133884	     -7.49999987	     -0.31870476	      1.72608147	     -5.31794440	     47.99341474	      4.04969197	     61.26812671	    121.88349340	     92.67132087	     59.67235700	      9.97413645	     69.68191186	    119.99571914	     73.54106944
     29.73333330	     -8.60817224	     -1.67959073	      1.18783796	      0.11686553	      0.90606273	     -0.08617711	      6.14327814	     -6.25776199	    -10.90233134	      0.67843563	      0.01184094	      6.48178245	     -2.38244555	     -7.49999987	     10.83428204	    -10.95132877	      9.91098076	      4.79328920	      0.08365868	      4.42539248	     -6.53204743	     -7.49999987	     -0.68014142	      1.67251967	     -5.39511800	     48.72447367	      4.02752955	     60.89767227	    121.86216729	     92.71824612	     60.37312904	      9.83371736	     69.54906012	    120.11975366	     73.52935757
